<svg width="16" height="16" viewBox="0 0 16 16" fill="none" xmlns="http://www.w3.org/2000/svg">
<path fill-rule="evenodd" clip-rule="evenodd" d="M10.0002 1.99984V1.33317C10.0002 0.964981 10.2986 0.666504 10.6668 0.666504C11.035 0.666504 11.3335 0.964981 11.3335 1.33317V1.99984H12.6668C13.7714 1.99984 14.6668 2.89527 14.6668 3.99984V6.6665V13.3332C14.6668 14.4377 13.7714 15.3332 12.6668 15.3332H3.3335C2.22893 15.3332 1.3335 14.4377 1.3335 13.3332V6.6665V3.99984C1.3335 2.89527 2.22893 1.99984 3.3335 1.99984H4.66683V1.33317C4.66683 0.964981 4.96531 0.666504 5.3335 0.666504C5.70169 0.666504 6.00016 0.964981 6.00016 1.33317V1.99984H10.0002ZM2.66683 7.33317V13.3332C2.66683 13.7014 2.96531 13.9998 3.3335 13.9998H12.6668C13.035 13.9998 13.3335 13.7014 13.3335 13.3332V7.33317H2.66683ZM13.3335 5.99984H2.66683V3.99984C2.66683 3.63165 2.96531 3.33317 3.3335 3.33317H4.66683V3.99984C4.66683 4.36803 4.96531 4.6665 5.3335 4.6665C5.70169 4.6665 6.00016 4.36803 6.00016 3.99984V3.33317H10.0002V3.99984C10.0002 4.36803 10.2986 4.6665 10.6668 4.6665C11.035 4.6665 11.3335 4.36803 11.3335 3.99984V3.33317H12.6668C13.035 3.33317 13.3335 3.63165 13.3335 3.99984V5.99984Z" fill="#B7BCC9"/>
<mask id="mask0" mask-type="alpha" maskUnits="userSpaceOnUse" x="1" y="0" width="14" height="16">
<path fill-rule="evenodd" clip-rule="evenodd" d="M10.0002 1.99984V1.33317C10.0002 0.964981 10.2986 0.666504 10.6668 0.666504C11.035 0.666504 11.3335 0.964981 11.3335 1.33317V1.99984H12.6668C13.7714 1.99984 14.6668 2.89527 14.6668 3.99984V6.6665V13.3332C14.6668 14.4377 13.7714 15.3332 12.6668 15.3332H3.3335C2.22893 15.3332 1.3335 14.4377 1.3335 13.3332V6.6665V3.99984C1.3335 2.89527 2.22893 1.99984 3.3335 1.99984H4.66683V1.33317C4.66683 0.964981 4.96531 0.666504 5.3335 0.666504C5.70169 0.666504 6.00016 0.964981 6.00016 1.33317V1.99984H10.0002ZM2.66683 7.33317V13.3332C2.66683 13.7014 2.96531 13.9998 3.3335 13.9998H12.6668C13.035 13.9998 13.3335 13.7014 13.3335 13.3332V7.33317H2.66683ZM13.3335 5.99984H2.66683V3.99984C2.66683 3.63165 2.96531 3.33317 3.3335 3.33317H4.66683V3.99984C4.66683 4.36803 4.96531 4.6665 5.3335 4.6665C5.70169 4.6665 6.00016 4.36803 6.00016 3.99984V3.33317H10.0002V3.99984C10.0002 4.36803 10.2986 4.6665 10.6668 4.6665C11.035 4.6665 11.3335 4.36803 11.3335 3.99984V3.33317H12.6668C13.035 3.33317 13.3335 3.63165 13.3335 3.99984V5.99984Z" fill="white"/>
</mask>
<g mask="url(#mask0)">
<rect width="16" height="16" fill="#B7BCC9"/>
</g>
</svg>
