<svg width="24" height="24" viewBox="0 0 24 24" fill="none" xmlns="http://www.w3.org/2000/svg">
<mask id="path-1-outside-1" maskUnits="userSpaceOnUse" x="3" y="3" width="17" height="17" fill="black">
<rect fill="white" x="3" y="3" width="17" height="17"/>
<path fill-rule="evenodd" clip-rule="evenodd" d="M12 10.5858L17.2929 5.29289C17.6834 4.90237 18.3166 4.90237 18.7071 5.29289C19.0976 5.68342 19.0976 6.31658 18.7071 6.70711L13.4142 12L18.7071 17.2929C19.0976 17.6834 19.0976 18.3166 18.7071 18.7071C18.3166 19.0976 17.6834 19.0976 17.2929 18.7071L12 13.4142L6.70711 18.7071C6.31658 19.0976 5.68342 19.0976 5.29289 18.7071C4.90237 18.3166 4.90237 17.6834 5.29289 17.2929L10.5858 12L5.29289 6.70711C4.90237 6.31658 4.90237 5.68342 5.29289 5.29289C5.68342 4.90237 6.31658 4.90237 6.70711 5.29289L12 10.5858Z"/>
</mask>
<path fill-rule="evenodd" clip-rule="evenodd" d="M12 10.5858L17.2929 5.29289C17.6834 4.90237 18.3166 4.90237 18.7071 5.29289C19.0976 5.68342 19.0976 6.31658 18.7071 6.70711L13.4142 12L18.7071 17.2929C19.0976 17.6834 19.0976 18.3166 18.7071 18.7071C18.3166 19.0976 17.6834 19.0976 17.2929 18.7071L12 13.4142L6.70711 18.7071C6.31658 19.0976 5.68342 19.0976 5.29289 18.7071C4.90237 18.3166 4.90237 17.6834 5.29289 17.2929L10.5858 12L5.29289 6.70711C4.90237 6.31658 4.90237 5.68342 5.29289 5.29289C5.68342 4.90237 6.31658 4.90237 6.70711 5.29289L12 10.5858Z" fill="#1C95F5"/>
<path d="M17.2929 5.29289L18 6L18 6L17.2929 5.29289ZM12 10.5858L11.2929 11.2929L12 12L12.7071 11.2929L12 10.5858ZM18.7071 5.29289L18 6V6L18.7071 5.29289ZM18.7071 6.70711L19.4142 7.41421L19.4142 7.41421L18.7071 6.70711ZM13.4142 12L12.7071 11.2929L12 12L12.7071 12.7071L13.4142 12ZM12 13.4142L12.7071 12.7071L12 12L11.2929 12.7071L12 13.4142ZM6.70711 18.7071L7.41421 19.4142L7.41421 19.4142L6.70711 18.7071ZM5.29289 18.7071L6 18H6L5.29289 18.7071ZM5.29289 17.2929L6 18L6 18L5.29289 17.2929ZM10.5858 12L11.2929 12.7071L12 12L11.2929 11.2929L10.5858 12ZM5.29289 6.70711L4.58579 7.41421L5.29289 6.70711ZM5.29289 5.29289L6 6L5.29289 5.29289ZM6.70711 5.29289L7.41421 4.58579L6.70711 5.29289ZM16.5858 4.58579L11.2929 9.87868L12.7071 11.2929L18 6L16.5858 4.58579ZM19.4142 4.58579C18.6332 3.80474 17.3668 3.80474 16.5858 4.58579L18 6H18L19.4142 4.58579ZM19.4142 7.41421C20.1953 6.63316 20.1953 5.36684 19.4142 4.58579L18 6V6L19.4142 7.41421ZM14.1213 12.7071L19.4142 7.41421L18 6L12.7071 11.2929L14.1213 12.7071ZM19.4142 16.5858L14.1213 11.2929L12.7071 12.7071L18 18L19.4142 16.5858ZM19.4142 19.4142C20.1953 18.6332 20.1953 17.3668 19.4142 16.5858L18 18L19.4142 19.4142ZM16.5858 19.4142C17.3668 20.1953 18.6332 20.1953 19.4142 19.4142L18 18L16.5858 19.4142ZM11.2929 14.1213L16.5858 19.4142L18 18L12.7071 12.7071L11.2929 14.1213ZM7.41421 19.4142L12.7071 14.1213L11.2929 12.7071L6 18L7.41421 19.4142ZM4.58579 19.4142C5.36684 20.1953 6.63316 20.1953 7.41421 19.4142L6 18H6L4.58579 19.4142ZM4.58579 16.5858C3.80474 17.3668 3.80474 18.6332 4.58579 19.4142L6 18V18L4.58579 16.5858ZM9.87868 11.2929L4.58579 16.5858L6 18L11.2929 12.7071L9.87868 11.2929ZM4.58579 7.41421L9.87868 12.7071L11.2929 11.2929L6 6L4.58579 7.41421ZM4.58579 4.58579C3.80474 5.36683 3.80474 6.63317 4.58579 7.41421L6 6L4.58579 4.58579ZM7.41421 4.58579C6.63317 3.80474 5.36683 3.80474 4.58579 4.58579L6 6L7.41421 4.58579ZM12.7071 9.87868L7.41421 4.58579L6 6L11.2929 11.2929L12.7071 9.87868Z" fill="#1C95F5" mask="url(#path-1-outside-1)"/>
<mask id="mask0" mask-type="alpha" maskUnits="userSpaceOnUse" x="5" y="5" width="14" height="14">
<path fill-rule="evenodd" clip-rule="evenodd" d="M12 10.5858L17.2929 5.29289C17.6834 4.90237 18.3166 4.90237 18.7071 5.29289C19.0976 5.68342 19.0976 6.31658 18.7071 6.70711L13.4142 12L18.7071 17.2929C19.0976 17.6834 19.0976 18.3166 18.7071 18.7071C18.3166 19.0976 17.6834 19.0976 17.2929 18.7071L12 13.4142L6.70711 18.7071C6.31658 19.0976 5.68342 19.0976 5.29289 18.7071C4.90237 18.3166 4.90237 17.6834 5.29289 17.2929L10.5858 12L5.29289 6.70711C4.90237 6.31658 4.90237 5.68342 5.29289 5.29289C5.68342 4.90237 6.31658 4.90237 6.70711 5.29289L12 10.5858Z" fill="white"/>
</mask>
<g mask="url(#mask0)">
<rect width="24" height="24" fill="#1C95F5"/>
</g>
</svg>
