<svg width="32" height="32" viewBox="0 0 32 32" fill="none" xmlns="http://www.w3.org/2000/svg">
<path d="M18.1143 16L11.0571 23.0572C10.5364 23.5779 10.5364 24.4221 11.0571 24.9428C11.5778 25.4635 12.422 25.4635 12.9427 24.9428L20.9427 16.9428C21.4634 16.4221 21.4634 15.5779 20.9427 15.0572L12.9427 7.05719C12.422 6.5365 11.5778 6.5365 11.0571 7.05719C10.5364 7.57789 10.5364 8.42211 11.0571 8.94281L18.1143 16Z" fill="black"/>
<mask id="mask0" mask-type="alpha" maskUnits="userSpaceOnUse" x="10" y="6" width="12" height="20">
<path d="M18.1143 16L11.0571 23.0572C10.5364 23.5779 10.5364 24.4221 11.0571 24.9428C11.5778 25.4635 12.422 25.4635 12.9427 24.9428L20.9427 16.9428C21.4634 16.4221 21.4634 15.5779 20.9427 15.0572L12.9427 7.05719C12.422 6.5365 11.5778 6.5365 11.0571 7.05719C10.5364 7.57789 10.5364 8.42211 11.0571 8.94281L18.1143 16Z" fill="white"/>
</mask>
<g mask="url(#mask0)">
<rect x="32" y="32" width="32" height="32" transform="rotate(-180 32 32)" fill="black"/>
</g>
</svg>
