<svg width="32" height="32" viewBox="0 0 32 32" fill="none" xmlns="http://www.w3.org/2000/svg">
<path fill-rule="evenodd" clip-rule="evenodd" d="M1.33301 15.9999C1.33301 24.1001 7.8995 30.6666 15.9997 30.6666C24.0998 30.6666 30.6663 24.1001 30.6663 15.9999C30.6663 7.89974 24.0998 1.33325 15.9997 1.33325C7.8995 1.33325 1.33301 7.89974 1.33301 15.9999ZM27.9997 15.9999C27.9997 22.6273 22.6271 27.9999 15.9997 27.9999C9.37226 27.9999 3.99967 22.6273 3.99967 15.9999C3.99967 9.3725 9.37226 3.99992 15.9997 3.99992C22.6271 3.99992 27.9997 9.3725 27.9997 15.9999ZM14.1141 15.9999L11.0569 19.0571C10.5362 19.5778 10.5362 20.422 11.0569 20.9427C11.5776 21.4634 12.4218 21.4634 12.9425 20.9427L15.9997 17.8855L19.0569 20.9427C19.5776 21.4634 20.4218 21.4634 20.9425 20.9427C21.4632 20.422 21.4632 19.5778 20.9425 19.0571L17.8853 15.9999L20.9425 12.9427C21.4632 12.422 21.4632 11.5778 20.9425 11.0571C20.4218 10.5364 19.5776 10.5364 19.0569 11.0571L15.9997 14.1143L12.9425 11.0571C12.4218 10.5364 11.5776 10.5364 11.0569 11.0571C10.5362 11.5778 10.5362 12.422 11.0569 12.9427L14.1141 15.9999Z" fill="#EB1D1D"/>
<mask id="mask0" mask-type="alpha" maskUnits="userSpaceOnUse" x="1" y="1" width="30" height="30">
<path fill-rule="evenodd" clip-rule="evenodd" d="M1.33301 15.9999C1.33301 24.1001 7.8995 30.6666 15.9997 30.6666C24.0998 30.6666 30.6663 24.1001 30.6663 15.9999C30.6663 7.89974 24.0998 1.33325 15.9997 1.33325C7.8995 1.33325 1.33301 7.89974 1.33301 15.9999ZM27.9997 15.9999C27.9997 22.6273 22.6271 27.9999 15.9997 27.9999C9.37226 27.9999 3.99967 22.6273 3.99967 15.9999C3.99967 9.3725 9.37226 3.99992 15.9997 3.99992C22.6271 3.99992 27.9997 9.3725 27.9997 15.9999ZM14.1141 15.9999L11.0569 19.0571C10.5362 19.5778 10.5362 20.422 11.0569 20.9427C11.5776 21.4634 12.4218 21.4634 12.9425 20.9427L15.9997 17.8855L19.0569 20.9427C19.5776 21.4634 20.4218 21.4634 20.9425 20.9427C21.4632 20.422 21.4632 19.5778 20.9425 19.0571L17.8853 15.9999L20.9425 12.9427C21.4632 12.422 21.4632 11.5778 20.9425 11.0571C20.4218 10.5364 19.5776 10.5364 19.0569 11.0571L15.9997 14.1143L12.9425 11.0571C12.4218 10.5364 11.5776 10.5364 11.0569 11.0571C10.5362 11.5778 10.5362 12.422 11.0569 12.9427L14.1141 15.9999Z" fill="white"/>
</mask>
<g mask="url(#mask0)">
<rect width="32" height="32" fill="#EB1D1D"/>
</g>
</svg>
