<svg width="16" height="16" viewBox="0 0 16 16" fill="none" xmlns="http://www.w3.org/2000/svg">
<path fill-rule="evenodd" clip-rule="evenodd" d="M7.00016 12.6666C3.87055 12.6666 1.3335 10.1296 1.3335 6.99998C1.3335 3.87037 3.87055 1.33331 7.00016 1.33331C10.1298 1.33331 12.6668 3.87037 12.6668 6.99998C12.6668 8.32454 12.2124 9.54296 11.4509 10.5078L14.4716 13.5286C14.732 13.7889 14.732 14.211 14.4716 14.4714C14.2113 14.7317 13.7892 14.7317 13.5288 14.4714L10.5081 11.4506C9.5432 12.2122 8.32476 12.6666 7.00016 12.6666ZM10.0217 10.1061C9.24111 10.8656 8.17526 11.3333 7.00016 11.3333C4.60693 11.3333 2.66683 9.39321 2.66683 6.99998C2.66683 4.60675 4.60693 2.66665 7.00016 2.66665C9.3934 2.66665 11.3335 4.60675 11.3335 6.99998C11.3335 8.17505 10.8658 9.24088 10.1064 10.0215C10.0912 10.0342 10.0764 10.0476 10.0622 10.0619C10.0479 10.0762 10.0344 10.0909 10.0217 10.1061Z" fill="#B7BCC9"/>
<mask id="mask0" mask-type="alpha" maskUnits="userSpaceOnUse" x="1" y="1" width="14" height="14">
<path fill-rule="evenodd" clip-rule="evenodd" d="M7.00016 12.6666C3.87055 12.6666 1.3335 10.1296 1.3335 6.99998C1.3335 3.87037 3.87055 1.33331 7.00016 1.33331C10.1298 1.33331 12.6668 3.87037 12.6668 6.99998C12.6668 8.32454 12.2124 9.54296 11.4509 10.5078L14.4716 13.5286C14.732 13.7889 14.732 14.211 14.4716 14.4714C14.2113 14.7317 13.7892 14.7317 13.5288 14.4714L10.5081 11.4506C9.5432 12.2122 8.32476 12.6666 7.00016 12.6666ZM10.0217 10.1061C9.24111 10.8656 8.17526 11.3333 7.00016 11.3333C4.60693 11.3333 2.66683 9.39321 2.66683 6.99998C2.66683 4.60675 4.60693 2.66665 7.00016 2.66665C9.3934 2.66665 11.3335 4.60675 11.3335 6.99998C11.3335 8.17505 10.8658 9.24088 10.1064 10.0215C10.0912 10.0342 10.0764 10.0476 10.0622 10.0619C10.0479 10.0762 10.0344 10.0909 10.0217 10.1061Z" fill="white"/>
</mask>
<g mask="url(#mask0)">
<rect width="16" height="16" fill="#B7BCC9"/>
</g>
</svg>
