<svg width="24" height="25" viewBox="0 0 24 25" fill="none" xmlns="http://www.w3.org/2000/svg">
<path fill-rule="evenodd" clip-rule="evenodd" d="M12.4474 1.69912C12.1659 1.55863 11.8345 1.55863 11.553 1.69912L1.55301 6.68935C0.815957 7.05716 0.815957 8.10691 1.55301 8.47471L11.553 13.4649C11.8345 13.6054 12.1659 13.6054 12.4474 13.4649L22.4474 8.47471C23.1845 8.10691 23.1845 7.05716 22.4474 6.68935L12.4474 1.69912ZM4.23629 7.58008L12.0002 3.70569L19.7642 7.58008L12.0002 11.4545L4.23629 7.58008ZM2.44743 16.6679C1.95345 16.4214 1.35278 16.6212 1.10579 17.1142C0.858803 17.6072 1.05903 18.2067 1.55301 18.4532L11.553 23.4435C11.8345 23.584 12.1659 23.584 12.4474 23.4435L22.4474 18.4532C22.9414 18.2067 23.1416 17.6072 22.8946 17.1142C22.6477 16.6212 22.047 16.4214 21.553 16.6679L12.0002 21.4349L2.44743 16.6679ZM1.10579 12.124C1.35278 11.631 1.95345 11.4311 2.44743 11.6776L12.0002 16.4447L21.553 11.6776C22.047 11.4311 22.6477 11.631 22.8946 12.124C23.1416 12.617 22.9414 13.2165 22.4474 13.463L12.4474 18.4532C12.1659 18.5937 11.8345 18.5937 11.553 18.4532L1.55301 13.463C1.05903 13.2165 0.858803 12.617 1.10579 12.124Z" fill="#1C95F5"/>
<mask id="mask0" mask-type="alpha" maskUnits="userSpaceOnUse" x="1" y="1" width="23" height="23">
<path fill-rule="evenodd" clip-rule="evenodd" d="M12.4474 1.69912C12.1659 1.55863 11.8345 1.55863 11.553 1.69912L1.55301 6.68935C0.815957 7.05716 0.815957 8.10691 1.55301 8.47471L11.553 13.4649C11.8345 13.6054 12.1659 13.6054 12.4474 13.4649L22.4474 8.47471C23.1845 8.10691 23.1845 7.05716 22.4474 6.68935L12.4474 1.69912ZM4.23629 7.58008L12.0002 3.70569L19.7642 7.58008L12.0002 11.4545L4.23629 7.58008ZM2.44743 16.6679C1.95345 16.4214 1.35278 16.6212 1.10579 17.1142C0.858803 17.6072 1.05903 18.2067 1.55301 18.4532L11.553 23.4435C11.8345 23.584 12.1659 23.584 12.4474 23.4435L22.4474 18.4532C22.9414 18.2067 23.1416 17.6072 22.8946 17.1142C22.6477 16.6212 22.047 16.4214 21.553 16.6679L12.0002 21.4349L2.44743 16.6679ZM1.10579 12.124C1.35278 11.631 1.95345 11.4311 2.44743 11.6776L12.0002 16.4447L21.553 11.6776C22.047 11.4311 22.6477 11.631 22.8946 12.124C23.1416 12.617 22.9414 13.2165 22.4474 13.463L12.4474 18.4532C12.1659 18.5937 11.8345 18.5937 11.553 18.4532L1.55301 13.463C1.05903 13.2165 0.858803 12.617 1.10579 12.124Z" fill="white"/>
</mask>
<g mask="url(#mask0)">
<rect y="0.59375" width="24" height="23.9531" fill="#1C95F5"/>
</g>
</svg>