<svg width="24" height="25" viewBox="0 0 24 25" fill="none" xmlns="http://www.w3.org/2000/svg">
<path fill-rule="evenodd" clip-rule="evenodd" d="M9 12.1484C6.23858 12.1484 4 9.91423 4 7.1582C4 4.40217 6.23858 2.16797 9 2.16797C11.7614 2.16797 14 4.40217 14 7.1582C14 9.91423 11.7614 12.1484 9 12.1484ZM18 21.1309V19.1348C18 16.3787 15.7614 14.1445 13 14.1445H5C2.23858 14.1445 0 16.3787 0 19.1348V21.1309C0 21.6821 0.447715 22.1289 1 22.1289C1.55228 22.1289 2 21.6821 2 21.1309V19.1348C2 17.4811 3.34315 16.1406 5 16.1406H13C14.6569 16.1406 16 17.4811 16 19.1348V21.1309C16 21.6821 16.4477 22.1289 17 22.1289C17.5523 22.1289 18 21.6821 18 21.1309ZM24 19.1348V21.1309C24 21.6821 23.5523 22.1289 23 22.1289C22.4477 22.1289 22 21.6821 22 21.1309V19.1355C21.999 17.771 21.0737 16.5798 19.75 16.2387C19.2153 16.1009 18.8937 15.5565 19.0318 15.0228C19.1698 14.4891 19.7153 14.1682 20.25 14.306C22.4562 14.8745 23.9983 16.8599 24 19.1348ZM15.752 4.26262C17.0794 4.60183 18.0078 5.79561 18.0078 7.16319C18.0078 8.53077 17.0794 9.72455 15.752 10.0638C15.2169 10.2005 14.8943 10.7442 15.0312 11.2782C15.1682 11.8122 15.713 12.1342 16.248 11.9975C18.4604 11.4321 20.0078 9.44249 20.0078 7.16319C20.0078 4.88389 18.4604 2.89426 16.248 2.3289C15.713 2.19218 15.1682 2.51423 15.0312 3.04821C14.8943 3.58219 15.2169 4.1259 15.752 4.26262ZM12 7.1582C12 8.81182 10.6569 10.1523 9 10.1523C7.34315 10.1523 6 8.81182 6 7.1582C6 5.50458 7.34315 4.16406 9 4.16406C10.6569 4.16406 12 5.50458 12 7.1582Z" fill="#B7BCC9"/>
<mask id="mask0" mask-type="alpha" maskUnits="userSpaceOnUse" x="0" y="2" width="24" height="21">
<path fill-rule="evenodd" clip-rule="evenodd" d="M9 12.1484C6.23858 12.1484 4 9.91423 4 7.1582C4 4.40217 6.23858 2.16797 9 2.16797C11.7614 2.16797 14 4.40217 14 7.1582C14 9.91423 11.7614 12.1484 9 12.1484ZM18 21.1309V19.1348C18 16.3787 15.7614 14.1445 13 14.1445H5C2.23858 14.1445 0 16.3787 0 19.1348V21.1309C0 21.6821 0.447715 22.1289 1 22.1289C1.55228 22.1289 2 21.6821 2 21.1309V19.1348C2 17.4811 3.34315 16.1406 5 16.1406H13C14.6569 16.1406 16 17.4811 16 19.1348V21.1309C16 21.6821 16.4477 22.1289 17 22.1289C17.5523 22.1289 18 21.6821 18 21.1309ZM24 19.1348V21.1309C24 21.6821 23.5523 22.1289 23 22.1289C22.4477 22.1289 22 21.6821 22 21.1309V19.1355C21.999 17.771 21.0737 16.5798 19.75 16.2387C19.2153 16.1009 18.8937 15.5565 19.0318 15.0228C19.1698 14.4891 19.7153 14.1682 20.25 14.306C22.4562 14.8745 23.9983 16.8599 24 19.1348ZM15.752 4.26262C17.0794 4.60183 18.0078 5.79561 18.0078 7.16319C18.0078 8.53077 17.0794 9.72455 15.752 10.0638C15.2169 10.2005 14.8943 10.7442 15.0312 11.2782C15.1682 11.8122 15.713 12.1342 16.248 11.9975C18.4604 11.4321 20.0078 9.44249 20.0078 7.16319C20.0078 4.88389 18.4604 2.89426 16.248 2.3289C15.713 2.19218 15.1682 2.51423 15.0312 3.04821C14.8943 3.58219 15.2169 4.1259 15.752 4.26262ZM12 7.1582C12 8.81182 10.6569 10.1523 9 10.1523C7.34315 10.1523 6 8.81182 6 7.1582C6 5.50458 7.34315 4.16406 9 4.16406C10.6569 4.16406 12 5.50458 12 7.1582Z" fill="white"/>
</mask>
<g mask="url(#mask0)">
<rect y="0.171875" width="24" height="23.9531" fill="#1C95F5"/>
</g>
</svg>