<svg width="24" height="24" viewBox="0 0 24 24" fill="none" xmlns="http://www.w3.org/2000/svg">
<path fill-rule="evenodd" clip-rule="evenodd" d="M18.7071 1.29289L22.7071 5.29289C23.0976 5.68342 23.0976 6.31658 22.7071 6.70711L12.7071 16.7071C12.5196 16.8946 12.2652 17 12 17H8C7.44772 17 7 16.5523 7 16V12C7 11.7348 7.10536 11.4804 7.29289 11.2929L17.2929 1.29289C17.6834 0.902369 18.3166 0.902369 18.7071 1.29289ZM19 14.66V20C19 20.5523 18.5523 21 18 21H4C3.44772 21 3 20.5523 3 20V6C3 5.44772 3.44772 5 4 5H9.34C9.89229 5 10.34 4.55228 10.34 4C10.34 3.44772 9.89229 3 9.34 3H4C2.34315 3 1 4.34315 1 6V20C1 21.6569 2.34315 23 4 23H18C19.6569 23 21 21.6569 21 20V14.66C21 14.1077 20.5523 13.66 20 13.66C19.4477 13.66 19 14.1077 19 14.66ZM9 15V12.4142L18 3.41421L20.5858 6L11.5858 15H9Z" fill="#1C95F5"/>
<mask id="mask0" mask-type="alpha" maskUnits="userSpaceOnUse" x="1" y="1" width="22" height="22">
<path fill-rule="evenodd" clip-rule="evenodd" d="M18.7071 1.29289L22.7071 5.29289C23.0976 5.68342 23.0976 6.31658 22.7071 6.70711L12.7071 16.7071C12.5196 16.8946 12.2652 17 12 17H8C7.44772 17 7 16.5523 7 16V12C7 11.7348 7.10536 11.4804 7.29289 11.2929L17.2929 1.29289C17.6834 0.902369 18.3166 0.902369 18.7071 1.29289ZM19 14.66V20C19 20.5523 18.5523 21 18 21H4C3.44772 21 3 20.5523 3 20V6C3 5.44772 3.44772 5 4 5H9.34C9.89229 5 10.34 4.55228 10.34 4C10.34 3.44772 9.89229 3 9.34 3H4C2.34315 3 1 4.34315 1 6V20C1 21.6569 2.34315 23 4 23H18C19.6569 23 21 21.6569 21 20V14.66C21 14.1077 20.5523 13.66 20 13.66C19.4477 13.66 19 14.1077 19 14.66ZM9 15V12.4142L18 3.41421L20.5858 6L11.5858 15H9Z" fill="white"/>
</mask>
<g mask="url(#mask0)">
<rect width="24" height="24" fill="#1C95F5"/>
</g>
</svg>
