<svg width="12" height="10" viewBox="0 0 12 10" fill="none" xmlns="http://www.w3.org/2000/svg">
<path fill="black" fill-rule="evenodd" clip-rule="evenodd" d="M6.86193 9.47141C6.60158 9.21107 6.60158 8.78896 6.86193 8.52861L9.72386 5.66668H0.666667C0.298477 5.66668 0 5.3682 0 5.00001C0 4.63182 0.298477 4.33334 0.666667 4.33334H9.72386L6.86193 1.47141C6.60158 1.21107 6.60158 0.788955 6.86193 0.528606C7.12228 0.268256 7.54439 0.268256 7.80474 0.528606L11.8043 4.52816M11.8043 5.4719L7.80474 9.47141C7.54439 9.73176 7.12228 9.73176 6.86193 9.47141M11.8043 5.4719C11.8059 5.47029 11.8075 5.46867 11.8091 5.46704C11.8708 5.40415 11.9176 5.33204 11.9494 5.2552C11.982 5.1766 12 5.0904 12 5.00001C12 4.8313 11.9364 4.66259 11.8091 4.53298"/>
</svg>