<svg width="16" height="16" viewBox="0 0 16 16" fill="none" xmlns="http://www.w3.org/2000/svg">
<path fill-rule="evenodd" clip-rule="evenodd" d="M5.33164 4.66665L5.33325 4.66666L5.33486 4.66665H10.665L10.6666 4.66666L10.6682 4.66665H11.9999V13.3333C11.9999 13.7015 11.7014 14 11.3333 14H4.66659C4.2984 14 3.99992 13.7015 3.99992 13.3333V4.66665H5.33164ZM11.3332 3.33332H12.6658L12.6666 3.33332L12.6674 3.33332H13.9999C14.3681 3.33332 14.6666 3.6318 14.6666 3.99999C14.6666 4.36818 14.3681 4.66665 13.9999 4.66665H13.3333V13.3333C13.3333 14.4379 12.4378 15.3333 11.3333 15.3333H4.66659C3.56202 15.3333 2.66659 14.4379 2.66659 13.3333V4.66665H1.99992C1.63173 4.66665 1.33325 4.36818 1.33325 3.99999C1.33325 3.6318 1.63173 3.33332 1.99992 3.33332H3.33245L3.33325 3.33332L3.33406 3.33332H4.66658V2.66666C4.66658 1.56209 5.56201 0.666656 6.66658 0.666656H9.33325C10.4378 0.666656 11.3332 1.56209 11.3332 2.66666V3.33332ZM9.99991 3.33332V2.66666C9.99991 2.29847 9.70144 1.99999 9.33325 1.99999H6.66658C6.29839 1.99999 5.99992 2.29847 5.99992 2.66666V3.33332H9.99991ZM5.99992 7.33332V11.3333C5.99992 11.7015 6.29839 12 6.66658 12C7.03477 12 7.33325 11.7015 7.33325 11.3333V7.33332C7.33325 6.96513 7.03477 6.66665 6.66658 6.66665C6.29839 6.66665 5.99992 6.96513 5.99992 7.33332ZM8.66659 11.3333V7.33332C8.66659 6.96513 8.96506 6.66665 9.33325 6.66665C9.70144 6.66665 9.99992 6.96513 9.99992 7.33332V11.3333C9.99992 11.7015 9.70144 12 9.33325 12C8.96506 12 8.66659 11.7015 8.66659 11.3333Z" fill="#EB1D1D"/>
<mask id="mask0" mask-type="alpha" maskUnits="userSpaceOnUse" x="1" y="0" width="14" height="16">
<path fill-rule="evenodd" clip-rule="evenodd" d="M5.33164 4.66665L5.33325 4.66666L5.33486 4.66665H10.665L10.6666 4.66666L10.6682 4.66665H11.9999V13.3333C11.9999 13.7015 11.7014 14 11.3333 14H4.66659C4.2984 14 3.99992 13.7015 3.99992 13.3333V4.66665H5.33164ZM11.3332 3.33332H12.6658L12.6666 3.33332L12.6674 3.33332H13.9999C14.3681 3.33332 14.6666 3.6318 14.6666 3.99999C14.6666 4.36818 14.3681 4.66665 13.9999 4.66665H13.3333V13.3333C13.3333 14.4379 12.4378 15.3333 11.3333 15.3333H4.66659C3.56202 15.3333 2.66659 14.4379 2.66659 13.3333V4.66665H1.99992C1.63173 4.66665 1.33325 4.36818 1.33325 3.99999C1.33325 3.6318 1.63173 3.33332 1.99992 3.33332H3.33245L3.33325 3.33332L3.33406 3.33332H4.66658V2.66666C4.66658 1.56209 5.56201 0.666656 6.66658 0.666656H9.33325C10.4378 0.666656 11.3332 1.56209 11.3332 2.66666V3.33332ZM9.99991 3.33332V2.66666C9.99991 2.29847 9.70144 1.99999 9.33325 1.99999H6.66658C6.29839 1.99999 5.99992 2.29847 5.99992 2.66666V3.33332H9.99991ZM5.99992 7.33332V11.3333C5.99992 11.7015 6.29839 12 6.66658 12C7.03477 12 7.33325 11.7015 7.33325 11.3333V7.33332C7.33325 6.96513 7.03477 6.66665 6.66658 6.66665C6.29839 6.66665 5.99992 6.96513 5.99992 7.33332ZM8.66659 11.3333V7.33332C8.66659 6.96513 8.96506 6.66665 9.33325 6.66665C9.70144 6.66665 9.99992 6.96513 9.99992 7.33332V11.3333C9.99992 11.7015 9.70144 12 9.33325 12C8.96506 12 8.66659 11.7015 8.66659 11.3333Z" fill="white"/>
</mask>
<g mask="url(#mask0)">
<rect width="16" height="16" fill="#EB1D1D"/>
</g>
</svg>
