<svg width="96" height="96" viewBox="0 0 96 96" fill="none" xmlns="http://www.w3.org/2000/svg">
<path d="M48 94.0408C74.5097 94.0408 96 72.9891 96 47.0204C96 21.0518 74.5097 0 48 0C21.4903 0 0 21.0518 0 47.0204C0 72.9891 21.4903 94.0408 48 94.0408Z" fill="#1C95F5"/>
<path d="M33.3061 35.2653C40.8803 35.2653 47.0204 29.1252 47.0204 21.551C47.0204 13.9768 40.8803 7.83673 33.3061 7.83673C25.7319 7.83673 19.5918 13.9768 19.5918 21.551C19.5918 29.1252 25.7319 35.2653 33.3061 35.2653Z" fill="#F1F4F7"/>
<path fill-rule="evenodd" clip-rule="evenodd" d="M3.91833 67.0354C29.1063 39.739 57.9456 25.2306 90.4364 23.5102C91.7093 24.6256 92.9108 27.3128 94.0408 31.5719C64.7867 40.7975 51.6217 62.0791 54.5456 95.4167C50.5956 96.4344 44.6539 96.1204 36.7207 94.4746C33.7747 77.2722 23.7591 69.775 6.67379 71.9831L3.91833 67.0354Z" fill="#F1F4F7"/>
</svg>
